<?xml version="1.0" encoding="UTF-8"?>
<svg version="1.1" xmlns="http://www.w3.org/2000/svg" width="662" height="659">
<path d="M0 0 C218.46 0 436.92 0 662 0 C662 217.47 662 434.94 662 659 C443.54 659 225.08 659 0 659 C0 441.53 0 224.06 0 0 Z " fill="#0B0B0B" transform="translate(0,0)"/>
<path d="M0 0 C218.46 0 436.92 0 662 0 C662 217.47 662 434.94 662 659 C443.54 659 225.08 659 0 659 C0 441.53 0 224.06 0 0 Z M268.1875 15.1875 C267.02863281 15.40035645 265.86976563 15.61321289 264.67578125 15.83251953 C200.3464422 28.10358515 142.45065479 59.61485708 96.125 105.625 C95.63817749 106.10637421 95.15135498 106.58774841 94.64978027 107.08370972 C87.97141627 113.70631246 81.8186126 120.60695591 76 128 C75.42556152 128.7204248 74.85112305 129.44084961 74.25927734 130.18310547 C35.85264844 178.62930006 13.61359763 235.72623354 7 297 C6.91634186 297.65169159 6.83268372 298.30338318 6.74649048 298.974823 C6.00765853 304.95052096 5.82441746 310.84947503 5.796875 316.8671875 C5.78981537 317.8913829 5.78275574 318.91557831 5.77548218 319.97080994 C5.50277744 351.6098007 5.50277744 351.6098007 9 383 C9.19867676 384.15048828 9.39735352 385.30097656 9.60205078 386.48632812 C21.63328741 453.93335055 53.57958374 513.73340493 101.875 562.0625 C102.79152344 562.99126953 103.70804687 563.92003906 104.65234375 564.87695312 C110.78694712 571.0244987 117.18198827 576.62452306 124 582 C124.59167969 582.47655029 125.18335937 582.95310059 125.79296875 583.4440918 C161.34981067 612.0489661 203.05265894 631.36183035 247 643 C247.88800293 643.23702637 248.77600586 643.47405273 249.69091797 643.71826172 C256.08412081 645.38900919 262.50865188 646.76829743 269 648 C270.00998047 648.19754883 271.01996094 648.39509766 272.06054688 648.59863281 C309.48097123 655.56507988 351.64699563 655.25532171 389 648 C390.24555664 647.75862305 391.49111328 647.51724609 392.77441406 647.26855469 C419.26904954 641.93743973 444.54066523 633.44677239 469 622 C469.8564209 621.60200195 470.7128418 621.20400391 471.59521484 620.79394531 C496.85482824 608.94303736 520.05668255 593.39935516 541 575 C541.76828125 574.34257813 542.5365625 573.68515625 543.328125 573.0078125 C547.76250867 569.19965858 551.90997813 565.17274141 556 561 C558.47842299 558.50535165 560.9683806 556.03028961 563.5078125 553.59765625 C570.22418039 547.09180138 576.02934217 540.18528032 581.67236328 532.73779297 C582.93811413 531.08100471 584.22683027 529.44598366 585.52734375 527.81640625 C622.29335596 481.29258985 642.8421403 423.37901846 650 365 C650.10530029 364.18160645 650.21060059 363.36321289 650.3190918 362.52001953 C651.41397953 352.645592 651.19866079 342.67111566 651.1875 332.75 C651.18689575 331.7647937 651.1862915 330.7795874 651.18566895 329.76452637 C651.16175027 315.4279076 650.98141539 301.22257812 649 287 C648.87109375 286.05463379 648.7421875 285.10926758 648.609375 284.13525391 C644.00879658 251.52119973 634.62454456 219.55376712 620 190 C619.31550781 188.61240479 619.31550781 188.61240479 618.6171875 187.19677734 C612.1790987 174.26250201 605.20875315 161.8911561 597 150 C596.56945312 149.37270996 596.13890625 148.74541992 595.6953125 148.09912109 C588.199854 137.23354546 580.00738605 127.08525436 571.109375 117.328125 C569.24324433 115.26846967 567.42930212 113.17611105 565.625 111.0625 C558.70110507 103.12652762 551.09117389 95.73600191 543 89 C542.47905762 88.55994629 541.95811523 88.11989258 541.42138672 87.66650391 C525.44372003 74.20257446 508.54553544 62.32782047 490.2421875 52.23632812 C488.11189137 51.0616962 485.99349883 49.86760463 483.875 48.671875 C438.62490432 23.53050964 384.20631719 10.24152003 332.51782227 10.66381836 C329.43414155 10.68752582 326.35132807 10.68432515 323.26757812 10.67773438 C304.79835789 10.70253486 286.36658588 11.78735847 268.1875 15.1875 Z " fill="#FBFBFB" transform="translate(0,0)"/>
<path d="M0 0 C1.76953125 1.57421875 1.76953125 1.57421875 3.375 3.25 C4.21611328 4.09498047 4.21611328 4.09498047 5.07421875 4.95703125 C13.41685333 14.55207103 12.80367967 28.16778497 12.66796875 40.17578125 C12.66235641 41.65935329 12.65809409 43.14293098 12.65510559 44.62651062 C12.64378539 48.48493471 12.61443308 52.34300665 12.58099365 56.20129395 C12.55001193 60.156934 12.53654093 64.11263233 12.52148438 68.06835938 C12.48954737 75.79575017 12.43688885 83.5227804 12.375 91.25 C6.765 91.25 1.155 91.25 -4.625 91.25 C-4.625 87.29 -4.625 83.33 -4.625 79.25 C-5.57375 80.301875 -6.5225 81.35375 -7.5 82.4375 C-15.84682179 90.75066525 -26.12296698 93.26569049 -37.5625 93.5625 C-47.56783282 93.37960682 -56.00291322 90.97006468 -63.625 84.25 C-70.18444523 76.12505472 -70.66736406 67.38466841 -69.625 57.25 C-66.90159629 49.0905533 -61.01446158 44.21847158 -53.625 40.25 C-43.86654426 36.43364236 -33.7415314 34.94980206 -23.4375 33.5 C-21.92369569 33.27824593 -20.41002258 33.05559431 -18.89648438 32.83203125 C-8.08120493 31.25 -8.08120493 31.25 -5.625 31.25 C-5.79242803 23.9592705 -6.95391565 18.02708417 -11.625 12.25 C-17.00776041 7.31912565 -24.11465043 7.60362956 -31.05078125 7.796875 C-37.33691567 8.5938057 -40.68808467 11.20838654 -44.9375 15.6875 C-47.01121546 18.72636403 -47.01121546 18.72636403 -49.625 24.25 C-55.235 23.92 -60.845 23.59 -66.625 23.25 C-66.35669648 14.79843904 -63.77256809 9.61076084 -57.953125 3.4921875 C-43.46299751 -9.73503897 -16.31220532 -11.35031777 0 0 Z " fill="#F7F7F8" transform="translate(262.625,323.75)"/>
<path d="M0 0 C6.70149479 5.80215999 10.14919395 12.24589542 11.3125 21.0625 C11.39676652 23.43028109 11.43030206 25.80015737 11.42602539 28.16943359 C11.42617142 28.85305969 11.42631744 29.53668579 11.4264679 30.24102783 C11.42577608 32.48103099 11.41801822 34.72094903 11.41015625 36.9609375 C11.40828947 38.52177892 11.40686679 40.08262092 11.40586853 41.64346313 C11.40206383 45.7369348 11.39225116 49.83037057 11.38116455 53.92382812 C11.37090628 58.1067659 11.36636147 62.28970951 11.36132812 66.47265625 C11.35062694 74.66928908 11.33304685 82.86588593 11.3125 91.0625 C5.7025 91.0625 0.0925 91.0625 -5.6875 91.0625 C-5.6875 87.1025 -5.6875 83.1425 -5.6875 79.0625 C-6.63625 80.114375 -7.585 81.16625 -8.5625 82.25 C-16.35577172 90.02752774 -26.17291269 93.06780607 -36.9375 93.375 C-49.00844398 93.13721779 -57.48131688 90.26868312 -66 81.75 C-70.62019989 74.39190388 -71.7198293 66.64960278 -70.6875 58.0625 C-68.6591854 50.96339889 -63.60606457 45.49471249 -57.421875 41.65625 C-42.63430875 34.21710624 -22.10587249 31.0625 -5.6875 31.0625 C-7.34403208 19.09462044 -7.34403208 19.09462044 -14.6875 10.0625 C-21.21480975 6.71340913 -30.29484095 6.84960161 -37.3046875 8.78515625 C-44.18972319 11.99384269 -47.01461722 17.24664891 -49.6875 24.0625 C-52.14623768 23.92191524 -54.60435175 23.77527001 -57.0625 23.625 C-57.76117188 23.58568359 -58.45984375 23.54636719 -59.1796875 23.50585938 C-64.4609375 23.17578125 -64.4609375 23.17578125 -66.6875 22.0625 C-66.16808529 14.66084043 -64.31024472 10.1348581 -59.5 4.5 C-43.7982284 -9.10820206 -17.8074768 -12.69151662 0 0 Z " fill="#F9F9F9" transform="translate(550.6875,323.9375)"/>
<path d="M0 0 C5.94 0 11.88 0 18 0 C18.33 24.75 18.66 49.5 19 75 C21.97 72.03 24.94 69.06 28 66 C32.0625 62.4375 32.0625 62.4375 34.03515625 60.74609375 C36.10820324 58.90384325 38.05435802 56.97598338 40 55 C43.18506631 51.76526404 46.48078471 48.7657524 49.98046875 45.875 C52.09723796 44.0257498 52.09723796 44.0257498 53.80078125 41.5625 C56.55228463 38.03351771 58.75610244 35.3770083 63.35400391 34.60449219 C69.2493096 34.21787936 75.11887897 34.50389967 81 35 C79.58637774 36.65497241 78.17165605 38.30901519 76.75219727 39.95898438 C75.65553794 41.23640837 74.5640145 42.51827995 73.48022461 43.80664062 C67.86602035 50.38767288 61.69834252 56.41211496 55.5625 62.5 C54.4379167 63.61955632 53.31356595 64.73934629 52.18945312 65.859375 C49.46230656 68.57561534 46.73204093 71.28868292 44 74 C46.17588879 77.88553663 48.32344449 81.6379987 50.99609375 85.20703125 C51.82439697 86.3206604 51.82439697 86.3206604 52.66943359 87.45678711 C53.54462646 88.62286499 53.54462646 88.62286499 54.4375 89.8125 C55.68946704 91.4969018 56.94075256 93.18181032 58.19140625 94.8671875 C58.82449707 95.71893555 59.45758789 96.57068359 60.10986328 97.44824219 C83 128.35081374 83 128.35081374 83 131 C76.04956112 132.22871343 68.83812306 133.13901572 62 131 C56.36293255 126.81428104 52.95561337 120.44858218 49.47412109 114.47509766 C47.40640518 111.00333483 45.03321506 107.8019842 42.625 104.5625 C38.26218206 98.47782088 34.1048712 92.26050189 30 86 C25.24968331 88.26995263 21.63784441 90.28738784 19 95 C17.97814851 101.14708723 18.0186796 107.22040541 18.0625 113.4375 C18.04938016 115.14000121 18.03313488 116.84248137 18.01367188 118.54492188 C17.96713995 122.69840198 17.98510568 126.84448335 18 131 C12.06 131 6.12 131 0 131 C0 87.77 0 44.54 0 0 Z " fill="#F9F9FA" transform="translate(389,284)"/>
<path d="M0 0 C3.52212738 2.34808492 6.47854275 4.66036439 7.44140625 8.98046875 C7.70485002 13.781944 7.13298665 16.44947388 3.9375 20.125 C2.64725376 21.43889637 1.33397836 22.73052737 0 24 C-1.29293612 25.29039597 -2.58466977 26.58199828 -3.875 27.875 C-4.44992187 28.42929688 -5.02484375 28.98359375 -5.6171875 29.5546875 C-7.10854485 30.97109777 -7.10854485 30.97109777 -8 33 C-8.66 33 -9.32 33 -10 33 C-10.25507324 33.58031982 -10.51014648 34.16063965 -10.77294922 34.75854492 C-12.12736466 37.23265718 -13.63412266 38.87721002 -15.6328125 40.86328125 C-16.35726562 41.58580078 -17.08171875 42.30832031 -17.828125 43.05273438 C-18.96507812 44.17131836 -18.96507812 44.17131836 -20.125 45.3125 C-20.85976563 46.04662109 -21.59453125 46.78074219 -22.3515625 47.53710938 C-26.45120851 51.60427579 -30.65486101 55.47990526 -35.02636719 59.2512207 C-38.51090335 62.33876802 -41.78109637 65.63699993 -45.0625 68.9375 C-45.73087891 69.60201172 -46.39925781 70.26652344 -47.08789062 70.95117188 C-50.3144141 74.18396653 -53.43989669 77.45758208 -56.421875 80.91796875 C-60.47233618 85.60897331 -64.80838339 89.99227323 -69.1875 94.375 C-69.98091797 95.18066406 -70.77433594 95.98632812 -71.59179688 96.81640625 C-72.35943359 97.58597656 -73.12707031 98.35554688 -73.91796875 99.1484375 C-74.60656982 99.84114746 -75.2951709 100.53385742 -76.00463867 101.24755859 C-79.02083525 103.89655639 -81.28267754 104.8896427 -85.25 105.5 C-95.23605715 104.16852571 -103.24088301 92.95248175 -110 86.0625 C-112.26737116 83.75827925 -114.5379919 81.45733256 -116.8125 79.16015625 C-117.35462128 78.61258163 -117.89674255 78.06500702 -118.45529175 77.50083923 C-122.47487583 73.46687664 -126.65733483 69.68396907 -131 66 C-132.30887632 64.78917539 -133.60663289 63.56569525 -134.875 62.3125 C-135.70644531 61.50232422 -135.70644531 61.50232422 -136.5546875 60.67578125 C-139.04005728 57.79409575 -139.93199911 55.45050588 -140.5 51.6875 C-139.83398123 46.77561156 -137.58855833 44.29106127 -134 41 C-131.13391871 39.56695936 -129.18699217 39.69355845 -126 40 C-120.94772565 42.90327878 -117.15361182 46.64214483 -113.125 50.8125 C-108.86514329 55.15243757 -104.60680823 59.36625464 -99.93359375 63.265625 C-96.52203268 66.3256919 -93.47782166 69.76911352 -90.39453125 73.15625 C-88.18435065 75.27998439 -88.18435065 75.27998439 -85.59689331 74.83241272 C-82.59759168 73.87101133 -81.26247547 72.75258861 -79.05517578 70.52514648 C-78.3173587 69.79025497 -77.57954163 69.05536346 -76.81936646 68.29820251 C-76.03592865 67.49725662 -75.25249084 66.69631073 -74.4453125 65.87109375 C-73.62553925 65.04803238 -72.80576599 64.22497101 -71.96115112 63.37696838 C-69.3396265 60.73968712 -66.73255501 58.08858641 -64.125 55.4375 C-62.37716814 53.67817564 -60.62847941 51.9197021 -58.87890625 50.16210938 C-57.19193743 48.46170197 -55.50571553 46.76055315 -53.8203125 45.05859375 C-53.04092316 44.27181747 -52.26153381 43.4850412 -51.45852661 42.67442322 C-47.37527388 38.52073909 -43.45375195 34.28285397 -39.64849854 29.87385559 C-37.0605302 26.93210051 -34.31766071 24.15537376 -31.55078125 21.3828125 C-30.68092842 20.50796707 -30.68092842 20.50796707 -29.79350281 19.615448 C-28.58230306 18.39923777 -27.36979455 17.18432957 -26.15600586 15.97070312 C-24.30097597 14.11346223 -22.45412582 12.24832796 -20.60742188 10.3828125 C-19.4223641 9.19482441 -18.23683407 8.00730717 -17.05078125 6.8203125 C-16.22879997 5.98755295 -16.22879997 5.98755295 -15.39021301 5.13796997 C-10.11464415 -0.10624465 -7.42919324 -1.82471413 0 0 Z " fill="#F8F8F8" transform="translate(392,136)"/>
<path d="M0 0 C34.65 0 69.3 0 105 0 C105 5.61 105 11.22 105 17 C91.14 17 77.28 17 63 17 C63 54.95 63 92.9 63 132 C56.4 132 49.8 132 43 132 C43 94.05 43 56.1 43 17 C28.81 17 14.62 17 0 17 C0 11.39 0 5.78 0 0 Z " fill="#F9F9F9" transform="translate(89,284)"/>
<path d="M0 0 C6.27 0 12.54 0 19 0 C19 43.56 19 87.12 19 132 C12.73 132 6.46 132 0 132 C0 88.44 0 44.88 0 0 Z " fill="#F5F5F5" transform="translate(300,284)"/>
<path d="M0 0 C5.94 0 11.88 0 18 0 C18 31.68 18 63.36 18 96 C12.06 96 6.12 96 0 96 C0 64.32 0 32.64 0 0 Z " fill="#F7F7F7" transform="translate(346,319)"/>
<path d="M0 0 C1.1446875 0.01353516 1.1446875 0.01353516 2.3125 0.02734375 C2.869375 0.03894531 3.42625 0.05054688 4 0.0625 C4.55632788 9.93216873 3.36156565 16.67945107 -3.1875 24.3125 C-9.43164724 30.86223356 -15.47229551 35.13071982 -24.6875 35.4375 C-30.72189889 35.38636103 -34.52574044 34.1106396 -39 30.0625 C-42.22416827 26.4353107 -42.53475754 22.9708519 -42.33984375 18.26953125 C-41.58043724 13.33775331 -38.67984838 10.30542127 -34.8125 7.4375 C-25.20277408 1.82730219 -10.97123828 -0.1714256 0 0 Z " fill="#0B0B0B" transform="translate(541,368.9375)"/>
<path d="M0 0 C0.47687481 10.59721795 -0.19470658 16.94857468 -7.0625 25.1875 C-13.48427915 31.89882796 -19.31325879 35.20814724 -28.6875 35.5625 C-35.41925889 35.27705439 -39.2538253 33.92334726 -43.9375 28.9375 C-46.04958424 23.09820827 -45.97969685 17.24513861 -43.5 11.5625 C-33.22135064 1.02688441 -13.80399743 -0.23006662 0 0 Z " fill="#0C0C0C" transform="translate(257,369)"/>
<path d="M0 0 C2.8100346 1.79363911 4.50940468 3.01880935 6 6 C6.47653732 9.40814662 6.54479788 12.59768384 6 16 C3.34030692 19.40986292 1.9574986 20.68558313 -2.26171875 21.36328125 C-6.38252615 21.49269504 -9.44549924 21.22718718 -13 19 C-15.82644678 14.76032983 -15.65911947 10.97913141 -15 6 C-11.45863818 0.01631968 -6.70215377 -0.97984704 0 0 Z " fill="#F9F9F9" transform="translate(359,285)"/>
<path d="M0 0 C0.33 0 0.66 0 1 0 C1.91146541 9.53783447 2.08503896 18.95951172 1.96289062 28.53369141 C1.95451172 29.44296387 1.94613281 30.35223633 1.9375 31.2890625 C1.92589844 32.10068848 1.91429687 32.91231445 1.90234375 33.74853516 C1.99896934 35.97623817 2.42672503 37.85349353 3 40 C3.06688591 41.91561254 3.08531719 43.83335592 3.0625 45.75 C3.05347656 46.73484375 3.04445313 47.7196875 3.03515625 48.734375 C3.02355469 49.48203125 3.01195312 50.2296875 3 51 C2.01 50.67 1.02 50.34 0 50 C0 33.5 0 17 0 0 Z " fill="#131313" transform="translate(6,306)"/>
<path d="M0 0 C6.93 0 13.86 0 21 0 C22.27603607 3.82810821 21.86283987 7.23475107 21.5625 11.1875 C21.51029297 11.93708984 21.45808594 12.68667969 21.40429688 13.45898438 C21.27486216 15.30637082 21.13813482 17.15324371 21 19 C20.67 19 20.34 19 20 19 C20 13.39 20 7.78 20 2 C13.4 2 6.8 2 0 2 C0 1.34 0 0.68 0 0 Z " fill="#252425" transform="translate(174,282)"/>
<path d="M0 0 C0.33 0.99 0.66 1.98 1 3 C-0.74387639 4.79799669 -2.49458982 6.58832297 -4.25 8.375 C-4.74113281 8.88289062 -5.23226563 9.39078125 -5.73828125 9.9140625 C-8.30582136 12.51583648 -10.57391571 14.64588097 -14 16 C-12.34136495 11.67495164 -9.128959 8.90581175 -5.875 5.75 C-5.31167969 5.19570312 -4.74835938 4.64140625 -4.16796875 4.0703125 C-2.78313972 2.70895515 -1.39216796 1.35385141 0 0 Z M-16 16 C-15.01 16.495 -15.01 16.495 -14 17 C-14.99 17.495 -14.99 17.495 -16 18 C-16 17.34 -16 16.68 -16 16 Z " fill="#151516" transform="translate(398,153)"/>
<path d="M0 0 C5.94 0 11.88 0 18 0 C18.33 0.99 18.66 1.98 19 3 C16.39521117 3.0809313 13.79293347 3.14045434 11.1875 3.1875 C10.08051758 3.22520508 10.08051758 3.22520508 8.95117188 3.26367188 C6.79296875 3.29296875 6.79296875 3.29296875 3 3 C2.01 2.01 1.02 1.02 0 0 Z " fill="#E9E9E9" transform="translate(513,317)"/>
<path d="M0 0 C5.445 1.485 5.445 1.485 11 3 C11 3.66 11 4.32 11 5 C12.65 5.33 14.3 5.66 16 6 C12.11764181 7.49828872 9.56550712 6.43110582 5.75 5.0625 C4.67234375 4.68222656 3.5946875 4.30195312 2.484375 3.91015625 C1.66453125 3.60980469 0.8446875 3.30945313 0 3 C0 2.01 0 1.02 0 0 Z " fill="#121212" transform="translate(220,632)"/>
<path d="M0 0 C0.33 0 0.66 0 1 0 C1.08074203 2.62561109 1.1403623 5.24875676 1.1875 7.875 C1.22520508 8.99455078 1.22520508 8.99455078 1.26367188 10.13671875 C1.29296875 12.3046875 1.29296875 12.3046875 1 16 C0.01 16.66 -0.98 17.32 -2 18 C-2.20852314 11.59370576 -2.1583195 6.07027358 0 0 Z " fill="#131212" transform="translate(650,338)"/>
<path d="M0 0 C2.97 0 5.94 0 9 0 C9 3.3 9 6.6 9 10 C8.01 10.495 8.01 10.495 7 11 C7 8.03 7 5.06 7 2 C4.69 1.67 2.38 1.34 0 1 C0 0.67 0 0.34 0 0 Z " fill="#282828" transform="translate(536,369)"/>
<path d="M0 0 C5.28 0 10.56 0 16 0 C16.33 0.99 16.66 1.98 17 3 C10.90218999 3.22084624 5.78357065 3.01167675 0 1 C0 0.67 0 0.34 0 0 Z " fill="#ECECEC" transform="translate(226,317)"/>
<path d="M0 0 C0.33 0 0.66 0 1 0 C1 1.65 1 3.3 1 5 C0.34 5 -0.32 5 -1 5 C-0.814375 6.11375 -0.62875 7.2275 -0.4375 8.375 C0 12 0 12 -1 14 C-1.66 14 -2.32 14 -3 14 C-2.88617347 12.04098546 -2.75858875 10.0827662 -2.625 8.125 C-2.55539062 7.03445313 -2.48578125 5.94390625 -2.4140625 4.8203125 C-2 2 -2 2 0 0 Z " fill="#111111" transform="translate(11,278)"/>
<path d="M0 0 C4.9723422 1.49170266 9.41845739 3.60457417 14 6 C14 6.66 14 7.32 14 8 C8.70139194 6.7023817 4.65474354 4.84984298 0 2 C0 1.34 0 0.68 0 0 Z " fill="#1B1A1B" transform="translate(469,42)"/>
<path d="M0 0 C0.66 0.33 1.32 0.66 2 1 C1.34 4.63 0.68 8.26 0 12 C0.66 12.33 1.32 12.66 2 13 C1.01 13 0.02 13 -1 13 C-2.42857143 4.57142857 -2.42857143 4.57142857 0 0 Z " fill="#131313" transform="translate(484,334)"/>
<path d="M0 0 C0.66 0 1.32 0 2 0 C3.7265625 1.96875 3.7265625 1.96875 5.625 4.5 C6.25664063 5.3353125 6.88828125 6.170625 7.5390625 7.03125 C8.02117188 7.6809375 8.50328125 8.330625 9 9 C8.34 9.66 7.68 10.32 7 11 C3.54872227 7.87741538 1.46763996 4.40291987 0 0 Z " fill="#121212" transform="translate(579,128)"/>
<path d="M0 0 C3.4375 0.3125 3.4375 0.3125 5.4375 2.3125 C-0.5025 2.8075 -0.5025 2.8075 -6.5625 3.3125 C-3.5625 0.3125 -3.5625 0.3125 0 0 Z " fill="#131313" transform="translate(249.5625,353.6875)"/>
<path d="M0 0 C2.97 0 5.94 0 9 0 C8.01 1.485 8.01 1.485 7 3 C5.0546875 3.29296875 5.0546875 3.29296875 2.875 3.1875 C1.59625 3.125625 0.3175 3.06375 -1 3 C-0.67 2.01 -0.34 1.02 0 0 Z " fill="#141414" transform="translate(350,649)"/>
<path d="M0 0 C3.63 0.66 7.26 1.32 11 2 C6.80184617 4.09907691 6.20805526 4.21812126 2 3 C1.34 2.67 0.68 2.34 0 2 C0 1.34 0 0.68 0 0 Z " fill="#131313" transform="translate(496,414)"/>
<path d="M0 0 C0.66 0.33 1.32 0.66 2 1 C-1.96 4.465 -1.96 4.465 -6 8 C-6.66 7.67 -7.32 7.34 -8 7 C-5.42215154 4.35247996 -3.08351902 2.05567935 0 0 Z " fill="#191819" transform="translate(221,375)"/>
<path d="M0 0 C1.2077558 3.62326739 0.54311128 4.64146369 -1 8 C-1.66 7.67 -2.32 7.34 -3 7 C-2.625 4.0625 -2.625 4.0625 -2 1 C-1.34 0.67 -0.68 0.34 0 0 Z " fill="#151515" transform="translate(543,380)"/>
<path d="M0 0 C3.625 -0.1875 3.625 -0.1875 7 0 C7 0.99 7 1.98 7 3 C4.03 3 1.06 3 -2 3 C-1.34 2.01 -0.68 1.02 0 0 Z " fill="#151515" transform="translate(291,12)"/>
<path d="M0 0 C2.64 0 5.28 0 8 0 C8.33 0.99 8.66 1.98 9 3 C5.625 3.1875 5.625 3.1875 2 3 C1.34 2.01 0.68 1.02 0 0 Z " fill="#181818" transform="translate(288,648)"/>
<path d="M0 0 C0.66 0 1.32 0 2 0 C3.32 2.31 4.64 4.62 6 7 C3.53199953 5.84826645 1.95216435 4.95216435 0 3 C0 2.01 0 1.02 0 0 Z " fill="#121212" transform="translate(446,409)"/>
</svg>
